<?xml version="1.0" encoding="UTF-8"?><svg id="Layer_1" xmlns="http://www.w3.org/2000/svg" width="49.11mm" height="38.01mm" viewBox="0 0 139.2 107.75"><defs><style>.cls-1{fill:#fff;}</style></defs><path class="cls-1" d="M109.52,21.02c.07-.69,.63-.93,1.15-1.05,1.99-.45,3.97-.97,6.06-.66,.91,.13,1.86,.1,2.78,.02,1.98-.17,3.9,.14,5.81,.58,2.05,.47,3.79,1.53,5.18,3.11,2.68,3.07,4,6.67,4.03,10.73,.01,1.62-.5,2.37-1.76,2.84-.65,.24-1.35,.04-1.7-.55-.23-.4-.42-.83-.58-1.27-2.29-6.23-9.7-8.99-15.43-6.23-2.35,1.13-4.73,2.22-6.43,4.31-.64,.79-1.28,1.6-1.76,2.48-1.31,2.39-1.99,5.01-2.59,7.64-1.27,5.62-2.54,11.25-3.83,16.87-.58,2.54-1.34,5.04-1.75,7.6-.53,3.3-1.01,6.64-1.1,9.98-.1,3.93,.64,7.8,2.65,11.27,.73,1.27,1.72,2.45,2.8,3.45,3.35,3.11,7.27,3.94,11.64,2.59,1.89-.58,3.59-1.5,5.23-2.58,1.24-.81,2.51-1.58,3.8-2.31,.89-.51,1.77-.97,2.31-1.94,.19-.35,.67-.67,1.07-.76,1.61-.36,2.81-1.33,3.96-2.42,1.38-1.3,2.24-1.23,3.76-.37,.42,.24,.8,.81,.92,1.3,.47,2.02,.51,4.04-.2,6.05-1.22,3.47-2.92,6.65-5.52,9.28-1.44,1.45-3,2.78-4.56,4.11-1.69,1.44-3.77,1.95-5.89,2.33-3.53,.64-7.05,.47-10.54-.24-2-.41-3.99-.9-5.95-1.46-1.92-.55-3.5-1.67-4.83-3.18-1.54-1.74-3.12-3.45-4.74-5.12-2.31-2.38-3.98-5.09-4.96-8.29-.86-2.84-1.99-5.61-3.02-8.4-.94-2.56-2.63-4.46-5.03-5.75-1.55-.84-3.09-1.69-4.89-2.06-.76,.48-1.12,1.19-1.28,2.04-1.32,6.9-5.45,11.89-10.84,16.04-2,1.53-4.36,2.08-6.77,2.35-5.27,.59-10.39-.24-15.41-1.81-1.9-.59-3.51-1.66-4.85-3.17-1.6-1.81-3.25-3.58-4.92-5.33-2.23-2.32-3.83-4.96-4.77-8.08-.85-2.85-2.02-5.6-3.03-8.4-.97-2.67-2.72-4.66-5.24-5.91-1.66-.82-3.4-1.49-5.12-2.19-.6-.25-1.23-.43-1.86-.59-5.4-1.36-8.24-5.14-9.55-10.25C.61,42.37,.21,36.98,.5,31.56c.18-3.25,.6-6.49,.96-9.72,.12-1.09,.24-2.23,1.22-3l-.05-.06c-.08,2.23-.19,4.46-.22,6.69-.04,3.54-.05,7.08,0,10.62,.01,1.1,.23,2.2,.3,3.31,.03,.44-.06,.9-.16,1.33-.25,1.08,0,2.01,.72,2.81,.86-.01,.93-.64,.84-1.17-.27-1.67-.2-3.33-.06-5,.25-2.87,.54-5.73,.87-9.25,.26,1.04,.41,1.44,.46,1.86,.11,.92,.17,1.85,.27,2.77,.11,1.02,.17,2.03,1.44,2.43,.33,.1,.57,.71,.72,1.13,.31,.87,.49,1.8,.81,2.67,.77,2.09,1.47,4.22,2.42,6.23,1.16,2.47,3.09,4.13,5.81,4.84,1.97,.51,3.89,1.2,5.77,2.02,1.03,.45,1.93,.99,2.85,1.89,.46-.59,.83-1.05,1.2-1.52,.08,.12,.26,.26,.25,.38-.14,2.41-.45,4.83-.41,7.24,.05,3.35,.16,6.72,.61,10.02,.54,3.9,2.22,7.47,4.15,10.89,.36,.64,.87,1.21,1.39,1.74,.77,.79,1.62,1.51,2.42,2.25,.47-.16,.81-.28,1.13-.39,.04-.23,.15-.45,.08-.57-.51-.89-1.04-1.75-1.58-2.63-2.58-4.21-3.83-8.86-4.33-13.72-.36-3.52-.29-7.05,.1-10.56,.8-7.12,1.95-14.19,3.88-21.1,1.03-3.67,2.13-7.31,3.24-10.96,.26-.86,.69-1.67,1.23-2.45,.32,1.49-.36,2.83-.57,4.22-.21,1.43-.72,2.81-1.2,4.54,.97-.99,1.95-2.72,2.25-3.66,.71-2.21,1.38-4.44,2.18-6.61,1.43-3.93,3.7-7.27,7.15-9.74,.45-.32,.94-.61,1.35-.98,1.48-1.36,3.18-2.21,5.19-2.46,.49-.06,.95-.4,1.39-.6-.14-.72-.55-.61-.9-.54-1.86,.35-3.68,.2-5.52-.25-.83-.2-1.76-.04-2.95-.04,2.49-1.14,4.83-1.56,7.26-1.49,1.3,.04,2.59,.09,3.89,.15,1.02,.04,2.05,.06,3.06,.15,4.37,.43,7.39,2.79,9.37,6.61,.82,1.58,1.5,3.19,1.66,5,.07,.83,.25,1.65,.37,2.39,.67,.77,1.35,.96,2.28,.61,1.47-.56,3.01-.96,4.49-1.51,4.31-1.62,8.58-1.06,12.8,.31,1.02,.33,1.98,1.02,2.84,1.71,3.09,2.51,4.24,3.3,9.21,1.54,.77-.27,1.54-.54,2.32-.81,.32,.73-.26,.92-.55,1.14-1.91,1.38-3.41,3.15-4.83,5-.61,.8-1.08,1.72-2.03,2.26-.34,.19-.53,.73-.67,1.15-.35,1.08-.83,2.04-1.81,2.7-1.16-1.18-1.37-1.62-2.33-4.86,1-.85,2.14,.37,3.17-.18-2.35-3.2-5.91-5.19-9.68-5.12,.99,.88,1.92,1.7,3.08,2.73-.98,.4-1.67,.22-2.34,.1-2.41-.4-4.81-.53-7.19,.19-.53,.16-1.07,.3-1.58,.52-.76,.33-1.55,.5-2.33,.72-1.12,.32-2.34,.72-3.08,1.95-.85,1.43-1.97,2.7-2.99,4.02-.32,.42-.74,.52-1.33,.05,.27-.69,.56-1.43,.92-2.33-1.24,.04-.98,1.66-2.03,1.63-.08-.15-.25-.34-.21-.44,.57-1.55,.82-3.24,2.13-4.45,.39-.36,.58-.94,.92-1.38,.39-.52,.75-1.14,1.28-1.46,1.99-1.18,3.88-2.57,6.22-3.06,.73-.15,1.47-.28,2.17-.52,3.61-1.26,7.12-1,10.54,.67,.24,.12,.52,.17,.79,.24,.08,.02,.18-.01,.3-.02,.44-.55-.04-.89-.39-1.04-1.19-.5-2.41-.96-3.64-1.33-2.58-.78-5.12-1.51-7.92-1.07-3,.47-5.73,1.58-8.27,3.12-1.57,.95-2.92,2.29-4.31,3.52-1.78,1.57-3.02,3.53-3.74,5.79-.33,1.05-.6,2.15-.68,3.24-.13,1.85-.09,3.72-.11,5.58-.02,3.54-.02,7.07-.05,10.61-.02,1.74,.55,3.46,.15,5.23-.13,.57,.07,.7,1.05,1.88,1.07-1.21,.19-2.51,.26-3.71,.08-1.3,.15-2.6,.26-3.9,.1-1.2,.24-2.4,.36-3.61,.13-1.27,0-2.58,.74-4.35,.1,1.16,.13,1.76,.2,2.35,.13,1.1,.23,2.22,.44,3.31,.08,.41,.35,.99,.68,1.11,1.04,.4,1.27,1.29,1.55,2.16,.28,.89,.41,1.82,.74,2.69,.72,1.91,1.43,3.84,2.31,5.68,1.15,2.38,3.09,3.91,5.64,4.65,1.42,.42,2.82,.92,4.25,1.33,1.71,.49,3.16,1.46,4.69,2.65,.42-.86,.77-1.57,1.13-2.3,.08,.13,.24,.26,.23,.37-.58,4.54-.55,9.09-.43,13.66,.13,5.17,1.85,9.84,4.1,14.36,1.01,2.03,2.64,3.58,4.55,4.87,.43-.15,.84-.3,1.39-.5-.65-1.03-1.19-1.88-1.72-2.74-2.71-4.35-4.09-9.15-4.59-14.21-.55-5.59,.1-11.11,.91-16.63,1.07-7.29,2.82-14.42,4.95-21.46,.65-2.13,1.4-4.23,2.14-6.33,.14-.39,.43-.72,.93-1.51-.41,3.51-1.63,6.33-1.98,9.86,1.24-1.94,2-3.48,2.51-5.17,.67-2.22,1.4-4.43,2.26-6.58,1.34-3.34,3.46-6.14,6.42-8.24,.38-.27,.81-.48,1.13-.81,1.56-1.57,3.39-2.55,5.61-2.85,.51-.07,.99-.34,2.07-.74-.9-.26-1.22-.47-1.48-.41-1.86,.46-3.69,.36-5.51-.18-.93-.28-1.83-.28-2.66,.31l.02-.04Zm-4.82,82.48c-.17-.12-.34-.25-.51-.37-.03,.07-.06,.15-.1,.22,.22,.03,.43,.05,.65,.08,.08,.8,.6,.68,1.13,.56,.46,.98,1.44,1.04,2.3,1.26,2.91,.75,5.88,.82,8.84,.48,1.94-.22,3.75-.96,5.42-2.03,.81-.52,1.15-1.17,.82-2.11,.15,.03,.3,.05,.45,.08-.14-.04-.29-.08-.43-.12-3.35,1.91-6.95,3.06-10.81,3.05-2.21,0-4.42-.35-6.64-.54-.18-.58-.63-.61-1.13-.56ZM34.38,43.98c.74-.25,1.33-.65,1.45-1.51,.19-1.29,.41-2.57,.58-3.85,.12-.94,.24-1.86,1.15-2.39-.3-.85,.29-1.86-.46-2.9q-.18,1.82,.54,2.93c-.41,.15-1.04,.18-1.19,.46-.71,1.37-1.45,2.73-1.46,4.37,0,.99,.07,2.03-.52,2.94-.51,2.73-1.03,5.46-1.52,8.19-.02,.09,.2,.22,.3,.33,.1-.04,.25-.05,.26-.1,.51-2.25,1.01-4.51,1.51-6.76,.16-.71-.06-1.27-.64-1.7Zm64.32,6.65c-1.08,1.31-1.82,2.75-1.83,4.51,0,.74-.01,1.52-.25,2.21-.91,2.65-.97,5.48-1.73,8.16-.11,.38-.01,.81-.01,1.28,.72-.25,.67-.78,.74-1.21,.89-5.02,2.42-9.92,3-15.01,.19-.31,.38-.62,.55-.94,.02-.05-.08-.23-.1-.22-.14,.04-.39,.09-.4,.15-.03,.36,0,.72,.01,1.08Zm-37.36,36.93c-1.2,.48-2.37,1.01-3.59,1.43-4.93,1.7-9.87,2.11-14.83,.1-.05-.02-.15,.09-.24,.14,.08,.13,.13,.3,.24,.38,.22,.17,.46,.31,.71,.43,3.28,1.48,6.75,1.92,10.29,1.67,2.41-.17,4.72-.91,6.77-2.27,.69-.46,1.02-1.06,.64-1.87,.18,.02,.36,.05,.55,.07-.18-.02-.36-.05-.53-.07Zm-25.71-23.14c.36,1.88,.7,4.08,1.22,6.24,.79,3.27,2.56,5.98,5.25,8.02,2.98,2.26,6.28,3.09,9.98,2.08,2.09-.58,3.99-1.51,5.8-2.66,1.41-.9,2.86-1.72,4.27-2.6,.55-.34,1.2-.66,1.53-1.16,.6-.91,1.34-1.48,2.36-1.81,.55-.18,.94-.68,.83-1.31-.26-1.64-.39-3.35-1.28-4.81-1.13-1.86-1.73-3.89-2.17-6-1.94-9.37-1.37-18.68,.7-27.95,.61-2.75,1.72-5.29,3.57-7.48,.4-.47,.64-1.11,.83-1.71,.56-1.72,.14-3.26-.84-4.75-3.23-4.95-9.39-6.4-14.24-4.27-1.02,.45-2.02,.96-2.99,1.5-2.78,1.52-4.92,3.67-6.03,6.68-.71,1.91-1.38,3.86-1.8,5.86-1.49,7.1-3.19,14.14-5.04,21.15-1.27,4.78-1.28,9.76-1.96,15Zm86.5,33.95c1.51-.24,2.47-.97,3.27-1.88,1.03-1.18,2.08-2.37,2.94-3.67,.64-.97,.21-1.88-.72-2.72-.93,.94-2.27,1.35-2.53,2.56-.3,1.36-1.14,2.29-1.89,3.34-.46,.64-1.21,1.15-1.08,2.37Zm-62.25-14.16c.98-.24,1.38-.23,1.65-.42,.84-.58,1.71-1.14,2.4-1.87,.95-1,1.84-2.1,2.59-3.26,.62-.97,.37-1.51-.85-2.62-.77,.72-1.93,1.15-2.27,2.23-.49,1.57-1.45,2.78-2.43,4.02-.33,.42-.55,.93-1.11,1.91Zm7.15-28c-.68,1.3,.11,2.51,.4,3.67,.45,1.8,1.12,3.58,2.91,5.18-.53-1.51-1-2.6-1.3-3.73-.33-1.24-.48-2.53-.74-3.79-.13-.64-.35-1.25-1.27-1.32ZM5.29,42.09c-.57,1.32,.06,2.45,.34,3.57,.45,1.77,1.15,3.44,2.58,4.71-.28-1.25-.77-2.42-1.1-3.64-.34-1.25-.51-2.54-.78-3.81-.04-.17-.15-.36-.29-.46-.2-.15-.45-.22-.77-.37Zm48.55,45.93c-2.98-.08-5.32-.14-7.65-.18-.03,0-.07,.16-.3,.69,2.56-.03,4.91,.94,7.95-.5Zm61.64,14.13c-.15-.1-.22-.19-.28-.18-2.18,.31-4.36,.58-6.55,.02-.43-.11-.64,.21-.48,.7,1.43,.18,2.89,.54,4.33,.48,.99-.04,2.24,.1,2.98-1.01Zm-21.02-28.71c.21-1.32,.42-2.63,.68-4.27-1.28,1.48-.93,2.88-.68,4.27Zm-61.33-17.94q-.72,1.43-.19,2.28c.08-.92,.14-1.6,.19-2.28Zm62.79,35.21c.12-.06,.25-.13,.37-.19-.22-.6-.44-1.2-.66-1.8-.12,.04-.23,.09-.35,.13,.21,.62,.43,1.24,.64,1.86Zm-62.36-16.8c-.25,.95-.13,1.34,.53,1.55,0-.29,.04-.47-.01-.62-.08-.23-.23-.43-.52-.93Zm-1.2-5.96c.05-.16,.14-.33,.15-.49,0-.1-.12-.21-.18-.31-.01,.09-.04,.18-.03,.27,.01,.18,.04,.36,.07,.53Zm62,14.35c-.02,.12-.03,.25-.05,.37,.04-.05,.12-.11,.12-.16,0-.06-.05-.14-.08-.21Zm-62-20.56c-.04,.06-.1,.12-.11,.18,0,.07,.04,.14,.06,.21,.04-.06,.1-.12,.11-.18,0-.07-.04-.14-.06-.21Zm.2-2.1c-.04-.06-.08-.13-.11-.19-.05,.05-.15,.12-.14,.14,.05,.09,.12,.17,.19,.25,.02-.07,.05-.14,.07-.21Zm-22.75-7.32c-.06-.03-.12-.08-.19-.09-.02,0-.06,.09-.08,.14,.06,.03,.13,.07,.19,.07,.02,0,.05-.09,.08-.13Zm22.58,12.65l-.13,.17,.18,.04-.05-.22Zm66.41-17.47c-.03,.08-.05,.16-.08,.23,.1-.05,.19-.11,.29-.16-.07-.02-.14-.05-.2-.07Z"/><path class="cls-1" d="M2.68,18.84c-.34-.84-.1-1.64,.15-2.44,1.08-3.51,3.14-6.28,6.15-8.37,2.31-1.6,4.88-2.67,7.53-3.53,.53-.17,1.07-.3,1.6-.49,4.25-1.54,8.43-.91,12.55,.48,.94,.32,1.9,.85,2.6,1.55,2.89,2.9,6.11,3.21,9.7,1.52,.64-.3,1.37-.4,2.58-.73-1.66,1.59-2.99,2.74-4.17,4.03-1.19,1.3-2.08,2.9-3.38,4.05-1.38,1.21-1.21,3.37-3.08,4.32-1.3-1.34-1.42-3.25-2.29-4.79,1.07-.84,2.11,.02,3.06-.32-.38-.99-1.52-2.24-2.99-3.28-1.25-.89-4.5-1.9-6.21-1.94,.14,1.2,2.04,1.09,1.86,2.72-.88,.43-1.9,.17-2.84,.02-1.78-.28-3.52-.22-5.25,.24-.8,.21-1.58,.53-2.36,.8-1.05,.36-2.08,.76-3.14,1.08-.92,.27-1.6,.66-2.14,1.57-.93,1.57-2.13,2.98-3.16,4.37-.86-.15-.97-.61-.74-1.06,.51-.97,1.13-1.89,1.74-2.89-.68-.41-.86,.23-1.05,.46-.74,.94-1.39,1.94-2.4,3.38,.17-1.08,.22-1.64,.35-2.2,.54-2.34,2.22-4.01,3.51-5.91,.21-.3,.46-.62,.77-.79,2.05-1.07,3.91-2.52,6.26-2.97,1.09-.21,2.19-.47,3.23-.83,2.8-.98,5.48-.38,8.15,.52,.78,.26,1.53,.6,2.24,.89,.53-.52,.19-.81-.1-1-.46-.3-.95-.6-1.47-.76-1.68-.53-3.38-.97-5.07-1.49-2.88-.89-5.68-.63-8.46,.42-.52,.2-1.05,.38-1.56,.6-6.12,2.62-4.49,1.64-9.11,6.55-1.64,1.74-2.35,3.97-3.13,6.16,0,0,.05,.07,.05,.07Z"/><path class="cls-1" d="M70.16,37.35c-.24-.87-.46-1.24-.39-1.53,.07-.26,.44-.61,.7-.63,.46-.03,.54,.43,.44,.79-.09,.33-.33,.62-.76,1.37Z"/><path class="cls-1" d="M8.36,23.41c-.24-.96-.41-1.38-.42-1.8,0-.15,.38-.43,.58-.43,.17,0,.5,.35,.48,.5-.07,.42-.28,.81-.64,1.73Z"/><path class="cls-1" d="M7.34,25.2c-.01,.08-.03,.15-.04,.23-.04-.09-.11-.18-.12-.27,0-.05,.07-.12,.11-.18,.02,.07,.04,.15,.05,.22Z"/><path class="cls-1" d="M109.5,21.06c-.08-.05-.15-.1-.23-.15,.08,.03,.17,.06,.25,.1,0,0-.02,.05-.02,.05Z"/></svg>